<svg xmlns="http://www.w3.org/2000/svg" viewBox="0 0 512 512">
  <path fill="#000" d="M256 40c102 0 188 77 188 181 0 132-84 251-188 251S68 353 68 221C68 117 154 40 256 40z"/>
  <path fill="#000" d="M256 34c18-31 51-49 91-49-11 38-34 66-71 84 33-4 68 4 101 25-42 27-85 31-128 12-38 19-81 15-123-12 32-21 67-29 100-25-37-18-60-46-71-84 40 0 73 18 91 49z"/>
  <circle fill="#fff" cx="202" cy="238" r="20"/>
  <circle fill="#fff" cx="310" cy="238" r="20"/>
  <path fill="none" stroke="#fff" stroke-width="22" stroke-linecap="round" d="M214 316c26 24 58 24 84 0"/>
</svg>
