<svg width="107" height="125" viewBox="0 0 107 125" xmlns="http://www.w3.org/2000/svg">
  <!-- body -->
  <path d="M53.1 28.6 C31.1 28.6 14.7 44.4 14.4 65.3 C14.1 86.6 30.9 101.0 52.5 101.0 C74.7 101.0 90.8 86.2 90.4 65.1 C90.0 44.1 74.7 28.6 53.1 28.6 Z" fill="#ffd83f"/>
  <!-- edge shadow -->
  <path d="M16.1 67.2 C17.2 86.5 31.6 99.2 51.6 100.5 C34.6 101.8 16.0 91.4 14.7 69.1 C14.6 68.3 14.5 67.4 14.5 66.6 Z" fill="#efc839" opacity="0.22"/>
  <!-- leaves -->
  <path d="M51.0 30.8 C49.7 23.8 46.8 16.7 42.0 8.9 C48.6 12.1 54.4 18.9 54.8 29.4 C53.9 30.2 52.6 30.7 51.0 30.8 Z" fill="#28bf31"/>
  <path d="M53.3 30.8 C58.2 23.4 65.4 18.7 75.1 17.3 C69.9 23.6 63.0 28.1 55.2 32.1 C54.5 31.9 53.9 31.5 53.3 30.8 Z" fill="#28bf31"/>
  <path d="M52.0 31.6 C45.5 26.8 38.2 23.7 29.2 22.6 C35.6 28.7 43.2 32.1 51.1 34.5 C51.6 33.8 51.9 32.8 52.0 31.6 Z" fill="#25b92f"/>
  <path d="M52.5 31.8 C47.3 34.2 42.5 38.5 38.4 44.8 C45.7 43.3 51.6 39.6 55.3 33.3 C54.5 32.5 53.6 32.0 52.5 31.8 Z" fill="#22aa2c"/>
  <path d="M54.5 31.1 C59.8 32.3 66.4 34.8 73.5 39.0 C68.0 39.3 61.0 36.2 55.1 33.3 C55.2 32.6 55.0 31.9 54.5 31.1 Z" fill="#23b72e"/>
  <path d="M45.7 29.9 C48.8 26.6 55.1 25.9 59.2 28.7 C58.5 33.5 53.8 36.9 48.3 35.8 C45.2 35.2 43.3 32.3 45.7 29.9 Z" fill="#28bd32"/>
  <!-- eyes -->
  <ellipse cx="34.5" cy="63.7" rx="3.1" ry="3.35" fill="#2d2419"/>
  <ellipse cx="52.3" cy="63.3" rx="3.1" ry="3.35" fill="#2d2419"/>
  <!-- sad mouth -->
  <path d="M37.5 78.3 C39.5 75.0 42.6 73.5 45.7 73.8 C48.4 74.1 50.5 76.1 51.8 79.0" fill="none" stroke="#2d2419" stroke-width="3.1" stroke-linecap="round" stroke-linejoin="round"/>
</svg>
