<svg width="107" height="125" viewBox="0 0 107 125" xmlns="http://www.w3.org/2000/svg">
  <!-- body -->
  <path d="M53.4 28.4 C30.7 28.2 13.7 44.1 13.4 65.2 C13.0 86.6 30.1 101.4 52.7 101.3 C75.6 101.2 92.0 86.2 91.6 64.9 C91.2 43.9 75.7 28.6 53.4 28.4 Z" fill="#ff9029"/>
  <!-- edge shadow -->
  <path d="M15.2 67.0 C16.4 86.8 31.1 99.5 51.8 100.9 C34.3 102.3 15.0 91.5 13.7 68.9 C13.6 68.0 13.5 67.2 13.5 66.4 Z" fill="#f28525" opacity="0.22"/>
  <!-- leaves -->
  <path d="M51.2 30.7 C49.9 23.7 47.0 16.6 42.2 8.8 C48.8 12.1 54.6 18.9 55.0 29.4 C54.1 30.2 52.8 30.7 51.2 30.7 Z" fill="#28bf31"/>
  <path d="M53.5 30.7 C58.4 23.3 65.6 18.6 75.3 17.2 C70.1 23.5 63.2 28.0 55.4 32.0 C54.7 31.8 54.1 31.4 53.5 30.7 Z" fill="#28bf31"/>
  <path d="M52.2 31.5 C45.7 26.7 38.4 23.6 29.4 22.5 C35.8 28.6 43.4 32.0 51.3 34.4 C51.8 33.7 52.1 32.7 52.2 31.5 Z" fill="#25b92f"/>
  <path d="M52.7 31.7 C47.5 34.1 42.6 38.4 38.6 44.7 C45.8 43.2 51.8 39.5 55.5 33.2 C54.7 32.4 53.8 31.9 52.7 31.7 Z" fill="#22aa2c"/>
  <path d="M54.7 31.0 C60.0 32.2 66.6 34.7 73.8 39.1 C68.2 39.3 61.2 36.1 55.3 33.2 C55.4 32.5 55.2 31.8 54.7 31.0 Z" fill="#23b72e"/>
  <path d="M45.9 29.8 C49.0 26.5 55.3 25.8 59.4 28.6 C58.7 33.4 54.0 36.8 48.5 35.7 C45.4 35.1 43.5 32.2 45.9 29.8 Z" fill="#28bd32"/>
  <!-- eyes -->
  <ellipse cx="34.7" cy="63.4" rx="3.25" ry="3.45" fill="#2c2118"/>
  <ellipse cx="52.6" cy="63.0" rx="3.25" ry="3.45" fill="#2c2118"/>
  <!-- smile -->
  <path d="M37.8 75.1 C39.3 78.0 41.4 79.5 43.6 79.2 C45.8 78.9 47.8 76.8 49.2 74.2" fill="none" stroke="#2c2118" stroke-width="3.1" stroke-linecap="round" stroke-linejoin="round"/>
</svg>
